#!OML:ASF X:\für Bonn\!DataBase\2005_08_11_Bastian_Final\c3d\Bastian.ASF
:FULLY-SPECIFIED
:DEGREES
504
root 1.29892 1.14367 25.2745 -810.31 -175.758 -716.861
lowerback 10.3112 -0.466033 -2.68855
upperback 18.4681 -3.76727 -1.71646
thorax 14.7567 -3.73732 -0.969151
lowerneck 6.56423 -3.11056 -5.80544
upperneck 22.448 -1.03096 -4.18349
head 5.81689 -0.016249 -0.264642
rclavicle -6.36111e-015 -1.39149e-014
rhumerus -37.93 32.3247 -81.1843
rradius 45.8859
rwrist 9.59517
rhand -23.3629 8.66349
rfingers 7.12502
rthumb 3.09262 -21.2938
lclavicle -6.36111e-015 -1.39149e-014
lhumerus -34.7737 -20.8586 77.7768
lradius 39.4273
lwrist 1.58434
lhand -23.7996 -13.6428
lfingers 7.12502
lthumb 2.67091 16.3202
rfemur -14.9809 6.74344 18.1378
rtibia 35.9621
rfoot 0.563654 -14.2844
rtoes -1.4088
lfemur -6.16102 -0.283381 -24.1201
ltibia 18.1854
lfoot 7.29873 -4.82332
ltoes -29.6443
505
root 1.3002 1.14221 25.2805 -810.288 -175.685 -716.891
lowerback 9.71516 -0.501669 -2.76776
upperback 18.2684 -3.68224 -1.72118
thorax 14.8586 -3.64136 -0.940581
lowerneck 6.58777 -3.12518 -5.74442
upperneck 22.3914 -1.06055 -4.22834
head 5.79323 -0.0290797 -0.290092
rclavicle -2.5842e-014 1.23246e-014
rhumerus -37.868 33.0402 -81.2511
rradius 45.2928
rwrist 9.3574
rhand -23.1813 8.68217
rfingers 7.12502
rthumb 3.26805 -21.2725
lclavicle -2.5842e-014 1.23246e-014
lhumerus -34.6785 -21.4093 77.999
lradius 39.088
lwrist 1.89222
lhand -23.7682 -13.3004
lfingers 7.12502
lthumb 2.70119 16.6622
rfemur -15.0023 6.7661 18.1025
rtibia 35.9525
rfoot 0.573178 -14.1552
rtoes -1.33381
lfemur -6.21611 -0.269563 -24.2016
ltibia 18.254
lfoot 7.27206 -4.86105
ltoes -29.6725
506
root 1.30204 1.14015 25.2853 -810.255 -175.66 -716.913
lowerback 9.12024 -0.55151 -2.81837
upperback 18.0718 -3.6244 -1.68914
thorax 14.9683 -3.56091 -0.887658
lowerneck 6.58098 -3.11421 -5.74622
upperneck 22.3164 -1.0583 -4.26877
head 5.76988 -0.0330509 -0.302954
rclavicle 1.39149e-014 -1.31198e-014
rhumerus -37.7601 33.849 -81.2748
rradius 44.7048
rwrist 9.1649
rhand -23.0141 8.62415
rfingers 7.12502
rthumb 3.42946 -21.328
lclavicle 1.39149e-014 -1.31198e-014
lhumerus -34.5072 -22.0133 78.2695
lradius 38.6209
lwrist 2.32238
lhand -23.7292 -13.0784
lfingers 7.12502
lthumb 2.73889 16.8838
rfemur -15.0299 6.84151 18.1259
rtibia 35.9369
rfoot 0.590622 -14.0601
rtoes -1.20764
lfemur -6.29134 -0.193409 -24.2231
ltibia 18.3129
lfoot 7.25095 -4.96784
ltoes -29.7031
507
root 1.30312 1.1385 25.2907 -810.246 -175.613 -716.952
lowerback 8.54072 -0.579137 -2.8435
upperback 17.882 -3.5377 -1.68585
thorax 15.0751 -3.46283 -0.878635
lowerneck 6.58579 -3.12006 -5.73761
upperneck 22.2599 -1.08671 -4.25935
head 5.75068 -0.0479004 -0.302503
rclavicle 2.66371e-014 -2.8625e-014
rhumerus -37.675 34.6425 -81.3284
rradius 44.1258
rwrist 9.07865
rhand -22.8641 8.54877
rfingers 7.12502
rthumb 3.57435 -21.401
lclavicle 2.66371e-014 -2.8625e-014
lhumerus -34.3202 -22.8335 78.526
lradius 38.1535
lwrist 2.9921
lhand -23.6372 -12.859
lfingers 7.12502
lthumb 2.82775 17.102
rfemur -15.0278 6.89337 18.1168
rtibia 35.9147
rfoot 0.589438 -13.8897
rtoes -1.2634
lfemur -6.32667 -0.165318 -24.2756
ltibia 18.3719
lfoot 7.2012 -5.0142
ltoes -29.6951
